<svg width="1280" height="670" viewBox="0 0 1280 670" fill="none" xmlns="http://www.w3.org/2000/svg">
<g clip-path="url(#clip0_181_324)">
<path d="M0 0H1280V670H0V0Z" fill="#F5F8FA"/>
<path d="M695.3 283.1H719.8V309.4H745V332.4H719.8V359.7H695.3V332.4H670.1V309.4H695.3V283.1Z" fill="#DFE2E4"/>
<path fill-rule="evenodd" clip-rule="evenodd" d="M536.8 339.1C536.8 313 557.9 291.8 583.8 291.8C609.7 291.8 630.8 313 630.8 339.1C630.8 365.2 609.7 386.4 583.8 386.4C557.9 386.4 536.8 365.2 536.8 339.1ZM559.2 339C559.2 352.7 570.2 363.8 583.8 363.8C597.4 363.8 608.4 352.8 608.4 339C608.4 325.3 597.4 314.2 583.8 314.2C570.2 314.2 559.2 325.3 559.2 339Z" fill="#DFE2E4"/>
<path d="M424.794 292.293C437.941 292.048 451.612 291.795 462.6 292.1C486.8 292.7 495.9 303.2 496.3 329.3C496.6 344 496.3 386.2 496.3 386.2H470.1C470.1 370.538 470.136 360.425 470.162 353.085V353.068C470.198 343.125 470.215 338.273 470.1 331.6C469.8 321.4 466.9 316.5 459 315.6C450.6 314.6 427.3 315.4 427.3 315.4V386.2H401.1V292.6C408.227 292.6 416.401 292.448 424.789 292.293L424.794 292.293Z" fill="#DFE2E4"/>
<path fill-rule="evenodd" clip-rule="evenodd" d="M878.4 339.1C878.4 313 857.3 291.8 831.4 291.8C805.5 291.8 784.4 313 784.4 339.1C784.4 354.4 791.4 367.5 802.3 376.2C809.9 382.2 820.5 386.4 834.7 386.4C841.6 386.4 859.5 384.5 872.4 370.2L861.8 356C857.3 360 846 365.6 837 365.6C825.6 365.6 818.7 363.4 813.7 358.7C810.6 355.9 808.4 351.6 807.4 346.3H877.7C878.1 343.9 878.4 341.6 878.4 339.1ZM807.6 330.5C810.2 319.4 818 311.2 831.3 311.2C845.2 311.2 852.5 320 854.9 330.5H807.6Z" fill="#DFE2E4"/>
</g>
<defs>
<clipPath id="clip0_181_324">
<rect width="1280" height="670" fill="white"/>
</clipPath>
</defs>
</svg>
